<!-- <svg width="16" height="16" viewBox="0 0 16 16" fill="none" xmlns="http://www.w3.org/2000/svg">
<path d="M4.00269 6.8165C4.08098 6.8165 4.15224 6.77221 4.19038 6.70219L4.7243 5.58591C4.88689 5.25327 5.14986 4.98347 5.47403 4.81665L6.55594 4.26777C6.62419 4.22864 6.66634 4.15553 6.66634 4.0752C6.66634 3.99488 6.62419 3.92176 6.55594 3.88263V3.88366L5.47403 3.32859C5.14983 3.16177 4.88689 2.89194 4.7243 2.55933L4.18937 1.44922C4.15123 1.37919 4.07998 1.33594 4.00169 1.33594C3.92341 1.33594 3.85215 1.37919 3.81401 1.44922H3.81501L3.27404 2.55933C3.11043 2.89197 2.84849 3.16177 2.52432 3.32859L1.44341 3.88983C1.37516 3.92793 1.33301 4.00208 1.33301 4.08137C1.33301 4.16169 1.37516 4.23481 1.44341 4.27394L2.52532 4.82281C2.84952 4.99069 3.11246 5.25946 3.27505 5.59208L3.81501 6.70219C3.85315 6.77221 3.92441 6.8165 4.00269 6.8165Z" fill="#212121"/>
<path d="M9.80105 16.0006C9.98324 16.0006 10.1491 15.8974 10.2378 15.7342L11.4804 13.1324C11.8588 12.3571 12.4708 11.7282 13.2253 11.3394L15.7432 10.0601C15.9021 9.96887 16.0002 9.79845 16.0002 9.61123C16.0002 9.42401 15.902 9.2536 15.7432 9.16238V9.16479L13.2253 7.87103C12.4708 7.4822 11.8588 6.8533 11.4804 6.07803L10.2355 3.49059C10.1467 3.32737 9.98091 3.22656 9.79871 3.22656C9.61652 3.22656 9.45069 3.32738 9.36193 3.49059H9.36426L8.10526 6.07803C7.72449 6.85336 7.11487 7.4822 6.36043 7.87103L3.84483 9.17916C3.68599 9.26797 3.58789 9.44079 3.58789 9.62561C3.58789 9.81283 3.686 9.98324 3.84483 10.0745L6.36276 11.3538C7.11726 11.7451 7.7292 12.3715 8.1076 13.1468L9.36426 15.7342C9.45302 15.8974 9.61886 16.0006 9.80105 16.0006Z" fill="#212121"/>
</svg> -->
<svg width="16" height="16" viewBox="0 0 16 16" fill="none" xmlns="http://www.w3.org/2000/svg">
<path d="M4.00269 6.8165C4.08098 6.8165 4.15224 6.77221 4.19038 6.70219L4.7243 5.58591C4.88689 5.25327 5.14986 4.98347 5.47403 4.81665L6.55594 4.26777C6.62419 4.22864 6.66634 4.15553 6.66634 4.0752C6.66634 3.99488 6.62419 3.92176 6.55594 3.88263V3.88366L5.47403 3.32859C5.14983 3.16177 4.88689 2.89194 4.7243 2.55933L4.18937 1.44922C4.15123 1.37919 4.07998 1.33594 4.00169 1.33594C3.92341 1.33594 3.85215 1.37919 3.81401 1.44922H3.81501L3.27404 2.55933C3.11043 2.89197 2.84849 3.16177 2.52432 3.32859L1.44341 3.88983C1.37516 3.92793 1.33301 4.00208 1.33301 4.08137C1.33301 4.16169 1.37516 4.23481 1.44341 4.27394L2.52532 4.82281C2.84952 4.99069 3.11246 5.25946 3.27505 5.59208L3.81501 6.70219C3.85315 6.77221 3.92441 6.8165 4.00269 6.8165Z" fill="white"/>
<path d="M9.80105 16.0006C9.98324 16.0006 10.1491 15.8974 10.2378 15.7342L11.4804 13.1324C11.8588 12.3571 12.4708 11.7282 13.2253 11.3394L15.7432 10.0601C15.9021 9.96887 16.0002 9.79845 16.0002 9.61123C16.0002 9.42401 15.902 9.2536 15.7432 9.16238V9.16479L13.2253 7.87103C12.4708 7.4822 11.8588 6.8533 11.4804 6.07803L10.2355 3.49059C10.1467 3.32737 9.98091 3.22656 9.79871 3.22656C9.61652 3.22656 9.45069 3.32738 9.36193 3.49059H9.36426L8.10526 6.07803C7.72449 6.85336 7.11487 7.4822 6.36043 7.87103L3.84483 9.17916C3.68599 9.26797 3.58789 9.44079 3.58789 9.62561C3.58789 9.81283 3.686 9.98324 3.84483 10.0745L6.36276 11.3538C7.11726 11.7451 7.7292 12.3715 8.1076 13.1468L9.36426 15.7342C9.45302 15.8974 9.61886 16.0006 9.80105 16.0006Z" fill="white"/>
</svg>